<svg width="17" height="16" viewBox="0 0 17 16" fill="none" xmlns="http://www.w3.org/2000/svg">
<g clip-path="url(#clip0_181_6628)">
<path fill-rule="evenodd" clip-rule="evenodd" d="M2.42093 6.60141L5.3615 4.02779C5.3197 3.91344 5.29838 3.79263 5.29853 3.67088C5.29853 3.09751 5.76334 2.63273 6.33668 2.63273C6.89909 2.63273 7.357 3.07991 7.37434 3.6381L9.69846 4.45179C9.88887 4.22826 10.1724 4.08648 10.489 4.08648C10.6613 4.08621 10.831 4.12904 10.9825 4.21107L13.6619 1.92185C13.6229 1.81103 13.603 1.69439 13.6031 1.57691C13.6031 1.00357 14.0679 0.538757 14.6413 0.538757C15.2147 0.538757 15.6795 1.00357 15.6795 1.57691C15.6795 2.15032 15.2147 2.61513 14.6413 2.61513C14.469 2.6154 14.2993 2.57257 14.1478 2.49054L11.4684 4.77976C11.5074 4.89058 11.5273 5.00722 11.5272 5.12469C11.5272 5.69804 11.0624 6.16285 10.489 6.16285C9.92659 6.16285 9.46871 5.71566 9.45137 5.15751L7.12725 4.34382C6.93681 4.56735 6.65334 4.70913 6.33668 4.70913C6.16845 4.70937 6.00271 4.66853 5.85384 4.59016L2.91328 7.16379C2.95508 7.27813 2.97639 7.39895 2.97625 7.52069C2.97625 8.0941 2.51143 8.55885 1.93803 8.55885C1.36471 8.55879 0.899902 8.09404 0.899902 7.52063C0.899902 6.94723 1.36471 6.48248 1.93806 6.48248C2.1063 6.48223 2.27205 6.52306 2.42093 6.60141ZM13.8515 4.66535C13.5934 4.66535 13.3828 4.87591 13.3828 5.1341V14.7006C13.3828 14.9588 13.5934 15.1694 13.8515 15.1694H15.4312C15.6894 15.1694 15.8999 14.9588 15.8999 14.7006V5.1341C15.8999 4.87591 15.6894 4.66535 15.4312 4.66535H13.8515ZM9.69918 8.48816C9.441 8.48816 9.23046 8.69873 9.23046 8.95691V14.7986C9.23046 15.0568 9.44103 15.2674 9.69918 15.2674H11.2789C11.5371 15.2674 11.7476 15.0568 11.7476 14.7986V8.95691C11.7476 8.69873 11.5371 8.48816 11.2789 8.48816H9.69918ZM5.5469 7.11576C5.28868 7.11576 5.07812 7.32632 5.07812 7.58451V14.8966C5.07812 15.1548 5.28865 15.3654 5.5469 15.3654H7.12653C7.38468 15.3654 7.59528 15.1548 7.59528 14.8966V7.58451C7.59528 7.32632 7.38468 7.11576 7.12653 7.11576H5.5469ZM1.39459 11.1507H2.97418C3.23237 11.1507 3.44296 11.3612 3.44296 11.6194V14.9946C3.44296 15.2528 3.23237 15.4633 2.97418 15.4633H1.39459C1.1364 15.4633 0.925809 15.2528 0.925809 14.9946V11.6194C0.92584 11.3612 1.13643 11.1507 1.39459 11.1507Z" fill="#6B6C7E"/>
</g>
<defs>
<clipPath id="clip0_181_6628">
<rect width="16" height="16" fill="white" transform="translate(0.399902 0.00100708)"/>
</clipPath>
</defs>
</svg>
