<svg width="17" height="16" viewBox="0 0 17 16" fill="none" xmlns="http://www.w3.org/2000/svg">
<path d="M2.8667 4.66768H13.5334" stroke="black" stroke-width="1.75" stroke-linecap="round" stroke-linejoin="round"/>
<path d="M2.8667 4.66768H13.5334" stroke="white" stroke-opacity="0.3" stroke-width="1.75" stroke-linecap="round" stroke-linejoin="round"/>
<path d="M6.86654 7.33435V11.3343" stroke="black" stroke-width="1.75" stroke-linecap="round" stroke-linejoin="round"/>
<path d="M6.86654 7.33435V11.3343" stroke="white" stroke-opacity="0.3" stroke-width="1.75" stroke-linecap="round" stroke-linejoin="round"/>
<path d="M9.53328 7.33435V11.3343" stroke="black" stroke-width="1.75" stroke-linecap="round" stroke-linejoin="round"/>
<path d="M9.53328 7.33435V11.3343" stroke="white" stroke-opacity="0.3" stroke-width="1.75" stroke-linecap="round" stroke-linejoin="round"/>
<path d="M3.5332 4.66766L4.19987 12.6677C4.19987 13.404 4.79682 14.001 5.5332 14.001H10.8665C11.6029 14.001 12.1999 13.404 12.1999 12.6677L12.8665 4.66766" stroke="black" stroke-width="1.75" stroke-linecap="round" stroke-linejoin="round"/>
<path d="M3.5332 4.66766L4.19987 12.6677C4.19987 13.404 4.79682 14.001 5.5332 14.001H10.8665C11.6029 14.001 12.1999 13.404 12.1999 12.6677L12.8665 4.66766" stroke="white" stroke-opacity="0.3" stroke-width="1.75" stroke-linecap="round" stroke-linejoin="round"/>
<path d="M6.19995 4.66767V2.66767C6.19995 2.29948 6.49843 2.00101 6.86662 2.00101H9.53328C9.90147 2.00101 10.2 2.29948 10.2 2.66767V4.66767" stroke="black" stroke-width="1.75" stroke-linecap="round" stroke-linejoin="round"/>
<path d="M6.19995 4.66767V2.66767C6.19995 2.29948 6.49843 2.00101 6.86662 2.00101H9.53328C9.90147 2.00101 10.2 2.29948 10.2 2.66767V4.66767" stroke="white" stroke-opacity="0.3" stroke-width="1.75" stroke-linecap="round" stroke-linejoin="round"/>
</svg>
