<svg width="17" height="16" viewBox="0 0 17 16" fill="none" xmlns="http://www.w3.org/2000/svg">
<path d="M6.20003 4.66766H4.20003C3.46365 4.66766 2.8667 5.26462 2.8667 6.001V12.001C2.8667 12.7374 3.46365 13.3343 4.20003 13.3343H10.2C10.9364 13.3343 11.5334 12.7374 11.5334 12.001V10.001" stroke="black" stroke-width="1.75" stroke-linecap="round" stroke-linejoin="round"/>
<path d="M6.20003 4.66766H4.20003C3.46365 4.66766 2.8667 5.26462 2.8667 6.001V12.001C2.8667 12.7374 3.46365 13.3343 4.20003 13.3343H10.2C10.9364 13.3343 11.5334 12.7374 11.5334 12.001V10.001" stroke="white" stroke-opacity="0.3" stroke-width="1.75" stroke-linecap="round" stroke-linejoin="round"/>
<path d="M6.19995 10.001H8.19995L13.8666 4.33432C14.4189 3.78203 14.4189 2.8866 13.8666 2.33432C13.3143 1.78203 12.4189 1.78203 11.8666 2.33432L6.19995 8.00099V10.001" stroke="black" stroke-width="1.75" stroke-linecap="round" stroke-linejoin="round"/>
<path d="M6.19995 10.001H8.19995L13.8666 4.33432C14.4189 3.78203 14.4189 2.8866 13.8666 2.33432C13.3143 1.78203 12.4189 1.78203 11.8666 2.33432L6.19995 8.00099V10.001" stroke="white" stroke-opacity="0.3" stroke-width="1.75" stroke-linecap="round" stroke-linejoin="round"/>
<path d="M10.8667 3.33435L12.8667 5.33435" stroke="black" stroke-width="1.75" stroke-linecap="round" stroke-linejoin="round"/>
<path d="M10.8667 3.33435L12.8667 5.33435" stroke="white" stroke-opacity="0.3" stroke-width="1.75" stroke-linecap="round" stroke-linejoin="round"/>
</svg>
